<?xml version="1.0" encoding="utf-8"?>
<!-- Generator: Adobe Illustrator 23.0.1, SVG Export Plug-In . SVG Version: 6.00 Build 0)  -->
<svg version="1.1" id="Layer_1" xmlns="http://www.w3.org/2000/svg" xmlns:xlink="http://www.w3.org/1999/xlink" x="0px" y="0px"
	 viewBox="0 0 233 220" style="enable-background:new 0 0 233 220;" xml:space="preserve">
<style type="text/css">
	.st0{fill:#FFFFFF;}
	.st1{fill:#961B1E;}
	.st2{fill:#231F20;}
	.st3{fill:#DEDFE1;}
	.st4{fill:#48484A;}
	.st5{fill:#6D6F71;}
</style>
<g>
	<rect y="21.4" class="st0" width="198.5" height="198.5"/>
	<rect x="11.5" y="32.8" class="st1" width="5.3" height="16"/>
	<rect x="11.5" y="48.8" class="st1" width="5.3" height="21.3"/>
	<rect x="11.5" y="75.4" class="st1" width="5.3" height="16"/>
	<rect x="11.5" y="128.6" class="st1" width="5.3" height="5.3"/>
	<rect x="11.5" y="139.2" class="st1" width="5.3" height="5.3"/>
	<rect x="11.5" y="149.9" class="st1" width="5.3" height="5.3"/>
	<rect x="11.5" y="160.5" class="st1" width="5.3" height="5.3"/>
	<rect x="11.5" y="171.2" class="st1" width="5.3" height="26.6"/>
	<rect x="11.5" y="197.8" class="st1" width="5.3" height="10.6"/>
	<rect x="16.8" y="32.8" class="st1" width="5.3" height="5.3"/>
	<rect x="16.8" y="64.8" class="st1" width="5.3" height="5.3"/>
	<rect x="16.8" y="86" class="st1" width="5.3" height="5.3"/>
	<rect x="16.8" y="102" class="st1" width="5.3" height="5.3"/>
	<rect x="16.8" y="118" class="st1" width="5.3" height="5.3"/>
	<rect x="16.8" y="133.9" class="st1" width="5.3" height="16"/>
	<rect x="16.8" y="149.9" class="st1" width="5.3" height="5.3"/>
	<rect x="16.8" y="160.5" class="st1" width="5.3" height="5.3"/>
	<rect x="16.8" y="171.2" class="st1" width="5.3" height="5.3"/>
	<rect x="16.8" y="203.1" class="st1" width="5.3" height="5.3"/>
	<rect x="22.1" y="32.8" class="st1" width="5.3" height="5.3"/>
	<rect x="22.1" y="43.5" class="st2" width="5.3" height="5.3"/>
	<rect x="22.1" y="48.8" class="st2" width="5.3" height="10.6"/>
	<rect x="22.1" y="64.8" class="st1" width="5.3" height="5.3"/>
	<rect x="22.1" y="75.4" class="st1" width="5.3" height="5.3"/>
	<rect x="22.1" y="102" class="st1" width="5.3" height="16"/>
	<rect x="22.1" y="139.2" class="st1" width="5.3" height="5.3"/>
	<rect x="22.1" y="149.9" class="st1" width="5.3" height="5.3"/>
	<rect x="22.1" y="171.2" class="st1" width="5.3" height="5.3"/>
	<rect x="22.1" y="181.8" class="st2" width="5.3" height="16"/>
	<rect x="22.1" y="203.1" class="st1" width="5.3" height="5.3"/>
	<rect x="27.4" y="32.8" class="st1" width="5.3" height="5.3"/>
	<rect x="27.4" y="43.5" class="st2" width="5.3" height="5.3"/>
	<rect x="27.4" y="48.8" class="st2" width="5.3" height="10.6"/>
	<rect x="27.4" y="64.8" class="st1" width="5.3" height="5.3"/>
	<rect x="27.4" y="86" class="st1" width="5.3" height="10.6"/>
	<rect x="27.4" y="102" class="st1" width="5.3" height="5.3"/>
	<rect x="27.4" y="112.6" class="st1" width="5.3" height="16"/>
	<rect x="27.4" y="133.9" class="st1" width="5.3" height="16"/>
	<rect x="27.4" y="149.9" class="st1" width="5.3" height="10.6"/>
	<rect x="27.4" y="171.2" class="st1" width="5.3" height="5.3"/>
	<rect x="27.4" y="181.8" class="st2" width="5.3" height="16"/>
	<rect x="27.4" y="203.1" class="st1" width="5.3" height="5.3"/>
	<rect x="32.8" y="32.8" class="st1" width="5.3" height="5.3"/>
	<rect x="32.8" y="43.5" class="st2" width="5.3" height="5.3"/>
	<rect x="32.8" y="48.8" class="st2" width="5.3" height="10.6"/>
	<rect x="32.8" y="64.8" class="st1" width="5.3" height="5.3"/>
	<rect x="32.8" y="86" class="st1" width="5.3" height="10.6"/>
	<rect x="32.8" y="102" class="st1" width="5.3" height="5.3"/>
	<rect x="32.8" y="112.6" class="st1" width="5.3" height="26.6"/>
	<rect x="32.8" y="144.6" class="st1" width="5.3" height="5.3"/>
	<rect x="32.8" y="149.9" class="st1" width="5.3" height="5.3"/>
	<rect x="32.8" y="171.2" class="st1" width="5.3" height="5.3"/>
	<rect x="32.8" y="181.8" class="st2" width="5.3" height="16"/>
	<rect x="32.8" y="203.1" class="st1" width="5.3" height="5.3"/>
	<rect x="38.1" y="32.8" class="st1" width="5.3" height="5.3"/>
	<rect x="38.1" y="64.8" class="st1" width="5.3" height="5.3"/>
	<rect x="38.1" y="80.7" class="st1" width="5.3" height="5.3"/>
	<rect x="38.1" y="91.4" class="st1" width="5.3" height="5.3"/>
	<rect x="38.1" y="102" class="st1" width="5.3" height="10.6"/>
	<rect x="38.1" y="139.2" class="st1" width="5.3" height="10.6"/>
	<rect x="38.1" y="160.5" class="st1" width="5.3" height="5.3"/>
	<rect x="38.1" y="171.2" class="st1" width="5.3" height="5.3"/>
	<rect x="38.1" y="203.1" class="st1" width="5.3" height="5.3"/>
	<rect x="43.4" y="32.8" class="st1" width="5.3" height="16"/>
	<rect x="43.4" y="48.8" class="st1" width="5.3" height="21.3"/>
	<rect x="43.4" y="75.4" class="st1" width="5.3" height="5.3"/>
	<rect x="43.4" y="86" class="st1" width="5.3" height="5.3"/>
	<rect x="43.4" y="96.7" class="st1" width="5.3" height="5.3"/>
	<rect x="43.4" y="107.3" class="st1" width="5.3" height="5.3"/>
	<rect x="43.4" y="118" class="st1" width="5.3" height="5.3"/>
	<rect x="43.4" y="128.6" class="st1" width="5.3" height="5.3"/>
	<rect x="43.4" y="139.2" class="st1" width="5.3" height="5.3"/>
	<rect x="43.4" y="149.9" class="st1" width="5.3" height="5.3"/>
	<rect x="43.4" y="160.5" class="st1" width="5.3" height="5.3"/>
	<rect x="43.4" y="171.2" class="st1" width="5.3" height="26.6"/>
	<rect x="43.4" y="197.8" class="st1" width="5.3" height="10.6"/>
	<rect x="48.7" y="75.4" class="st1" width="5.3" height="5.3"/>
	<rect x="48.7" y="86" class="st1" width="5.3" height="5.3"/>
	<rect x="48.7" y="102" class="st1" width="5.3" height="10.6"/>
	<rect x="48.7" y="123.3" class="st1" width="5.3" height="10.6"/>
	<rect x="48.7" y="139.2" class="st1" width="5.3" height="5.3"/>
	<rect x="48.7" y="149.9" class="st1" width="5.3" height="10.6"/>
	<rect x="54" y="32.8" class="st1" width="5.3" height="5.3"/>
	<rect x="54" y="43.5" class="st1" width="5.3" height="5.3"/>
	<rect x="54" y="59.4" class="st1" width="5.3" height="10.6"/>
	<rect x="54" y="86" class="st1" width="5.3" height="5.3"/>
	<rect x="54" y="118" class="st1" width="5.3" height="5.3"/>
	<rect x="54" y="128.6" class="st1" width="5.3" height="5.3"/>
	<rect x="54" y="139.2" class="st1" width="5.3" height="10.6"/>
	<rect x="54" y="155.2" class="st1" width="5.3" height="16"/>
	<rect x="54" y="171.2" class="st1" width="5.3" height="5.3"/>
	<rect x="54" y="192.4" class="st1" width="5.3" height="5.3"/>
	<rect x="54" y="203.1" class="st1" width="5.3" height="5.3"/>
	<rect x="59.4" y="32.8" class="st1" width="5.3" height="16"/>
	<rect x="59.4" y="48.8" class="st1" width="5.3" height="10.6"/>
	<rect x="59.4" y="70.1" class="st1" width="5.3" height="10.6"/>
	<rect x="59.4" y="91.4" class="st1" width="5.3" height="5.3"/>
	<rect x="59.4" y="128.6" class="st1" width="5.3" height="5.3"/>
	<rect x="59.4" y="149.9" class="st1" width="5.3" height="10.6"/>
	<rect x="59.4" y="181.8" class="st1" width="5.3" height="10.6"/>
	<rect x="59.4" y="197.8" class="st1" width="5.3" height="5.3"/>
	<rect x="64.7" y="32.8" class="st1" width="5.3" height="5.3"/>
	<rect x="64.7" y="43.5" class="st1" width="5.3" height="5.3"/>
	<rect x="64.7" y="64.8" class="st1" width="5.3" height="5.3"/>
	<rect x="64.7" y="75.4" class="st1" width="5.3" height="5.3"/>
	<rect x="64.7" y="107.3" class="st1" width="5.3" height="31.9"/>
	<rect x="64.7" y="144.6" class="st1" width="5.3" height="5.3"/>
	<rect x="64.7" y="149.9" class="st1" width="5.3" height="5.3"/>
	<rect x="64.7" y="171.2" class="st1" width="5.3" height="10.6"/>
	<rect x="64.7" y="187.1" class="st1" width="5.3" height="10.6"/>
	<rect x="64.7" y="203.1" class="st1" width="5.3" height="5.3"/>
	<rect x="70" y="48.8" class="st1" width="5.3" height="5.3"/>
	<rect x="70" y="59.4" class="st1" width="5.3" height="5.3"/>
	<rect x="70" y="80.7" class="st1" width="5.3" height="5.3"/>
	<rect x="70" y="91.4" class="st1" width="5.3" height="5.3"/>
	<rect x="70" y="107.3" class="st1" width="5.3" height="5.3"/>
	<rect x="70" y="128.6" class="st1" width="5.3" height="16"/>
	<rect x="70" y="149.9" class="st1" width="5.3" height="5.3"/>
	<rect x="70" y="160.5" class="st1" width="5.3" height="5.3"/>
	<rect x="70" y="171.2" class="st1" width="5.3" height="5.3"/>
	<rect x="70" y="181.8" class="st1" width="5.3" height="5.3"/>
	<rect x="70" y="203.1" class="st1" width="5.3" height="5.3"/>
	<rect x="75.3" y="32.8" class="st1" width="5.3" height="16"/>
	<rect x="75.3" y="48.8" class="st1" width="5.3" height="5.3"/>
	<rect x="75.3" y="59.4" class="st1" width="5.3" height="10.6"/>
	<rect x="75.3" y="86" class="st1" width="5.3" height="10.6"/>
	<rect x="75.3" y="118" class="st1" width="5.3" height="5.3"/>
	<rect x="75.3" y="128.6" class="st1" width="5.3" height="21.3"/>
	<rect x="75.3" y="171.2" class="st1" width="5.3" height="10.6"/>
	<rect x="75.3" y="187.1" class="st1" width="5.3" height="10.6"/>
	<rect x="80.6" y="32.8" class="st1" width="5.3" height="5.3"/>
	<rect x="80.6" y="43.5" class="st1" width="5.3" height="5.3"/>
	<rect x="80.6" y="54.1" class="st1" width="5.3" height="5.3"/>
	<rect x="80.6" y="70.1" class="st1" width="5.3" height="16"/>
	<rect x="80.6" y="91.4" class="st1" width="5.3" height="16"/>
	<rect x="80.6" y="128.6" class="st1" width="5.3" height="21.3"/>
	<rect x="80.6" y="149.9" class="st1" width="5.3" height="10.6"/>
	<rect x="80.6" y="171.2" class="st1" width="5.3" height="5.3"/>
	<rect x="80.6" y="181.8" class="st1" width="5.3" height="10.6"/>
	<rect x="86" y="32.8" class="st1" width="5.3" height="5.3"/>
	<rect x="86" y="64.8" class="st1" width="5.3" height="5.3"/>
	<rect x="86" y="80.7" class="st1" width="5.3" height="5.3"/>
	<rect x="86" y="128.6" class="st1" width="5.3" height="5.3"/>
	<rect x="86" y="144.6" class="st1" width="5.3" height="5.3"/>
	<rect x="86" y="149.9" class="st1" width="5.3" height="16"/>
	<rect x="86" y="171.2" class="st1" width="5.3" height="5.3"/>
	<rect x="86" y="181.8" class="st1" width="5.3" height="16"/>
	<rect x="86" y="197.8" class="st1" width="5.3" height="10.6"/>
	<rect x="91.3" y="54.1" class="st1" width="5.3" height="10.6"/>
	<rect x="91.3" y="70.1" class="st1" width="5.3" height="5.3"/>
	<rect x="91.3" y="96.7" class="st1" width="5.3" height="5.3"/>
	<rect x="91.3" y="107.3" class="st1" width="5.3" height="5.3"/>
	<rect x="91.3" y="118" class="st1" width="5.3" height="5.3"/>
	<rect x="91.3" y="133.9" class="st1" width="5.3" height="10.6"/>
	<rect x="91.3" y="155.2" class="st1" width="5.3" height="5.3"/>
	<rect x="91.3" y="165.8" class="st1" width="5.3" height="5.3"/>
	<rect x="91.3" y="181.8" class="st1" width="5.3" height="5.3"/>
	<rect x="91.3" y="192.4" class="st1" width="5.3" height="5.3"/>
	<rect x="91.3" y="203.1" class="st1" width="5.3" height="5.3"/>
	<rect x="96.6" y="32.8" class="st1" width="5.3" height="16"/>
	<rect x="96.6" y="64.8" class="st1" width="5.3" height="10.6"/>
	<rect x="96.6" y="86" class="st1" width="5.3" height="5.3"/>
	<rect x="96.6" y="118" class="st1" width="5.3" height="5.3"/>
	<rect x="96.6" y="128.6" class="st1" width="5.3" height="5.3"/>
	<rect x="96.6" y="139.2" class="st1" width="5.3" height="10.6"/>
	<rect x="96.6" y="149.9" class="st1" width="5.3" height="21.3"/>
	<rect x="96.6" y="171.2" class="st1" width="5.3" height="5.3"/>
	<rect x="96.6" y="203.1" class="st1" width="5.3" height="5.3"/>
	<rect x="101.9" y="32.8" class="st1" width="5.3" height="5.3"/>
	<rect x="101.9" y="43.5" class="st1" width="5.3" height="5.3"/>
	<rect x="101.9" y="54.1" class="st1" width="5.3" height="5.3"/>
	<rect x="101.9" y="70.1" class="st1" width="5.3" height="5.3"/>
	<rect x="101.9" y="80.7" class="st1" width="5.3" height="5.3"/>
	<rect x="101.9" y="91.4" class="st1" width="5.3" height="10.6"/>
	<rect x="101.9" y="112.6" class="st1" width="5.3" height="10.6"/>
	<rect x="101.9" y="128.6" class="st1" width="5.3" height="5.3"/>
	<rect x="101.9" y="139.2" class="st1" width="5.3" height="5.3"/>
	<rect x="101.9" y="149.9" class="st1" width="5.3" height="21.3"/>
	<rect x="101.9" y="176.5" class="st1" width="5.3" height="10.6"/>
	<rect x="101.9" y="192.4" class="st1" width="5.3" height="5.3"/>
	<rect x="107.2" y="64.8" class="st1" width="5.3" height="5.3"/>
	<rect x="107.2" y="75.4" class="st1" width="5.3" height="5.3"/>
	<rect x="107.2" y="107.3" class="st1" width="5.3" height="5.3"/>
	<rect x="107.2" y="123.3" class="st1" width="5.3" height="26.6"/>
	<rect x="107.2" y="149.9" class="st1" width="5.3" height="5.3"/>
	<rect x="107.2" y="160.5" class="st1" width="5.3" height="10.6"/>
	<rect x="107.2" y="192.4" class="st1" width="5.3" height="5.3"/>
	<rect x="107.2" y="203.1" class="st1" width="5.3" height="5.3"/>
	<rect x="112.6" y="32.8" class="st1" width="5.3" height="10.6"/>
	<rect x="112.6" y="48.8" class="st1" width="5.3" height="16"/>
	<rect x="112.6" y="70.1" class="st1" width="5.3" height="5.3"/>
	<rect x="112.6" y="96.7" class="st1" width="5.3" height="5.3"/>
	<rect x="112.6" y="107.3" class="st1" width="5.3" height="5.3"/>
	<rect x="112.6" y="118" class="st1" width="5.3" height="5.3"/>
	<rect x="112.6" y="139.2" class="st1" width="5.3" height="5.3"/>
	<rect x="112.6" y="155.2" class="st1" width="5.3" height="5.3"/>
	<rect x="112.6" y="181.8" class="st1" width="5.3" height="5.3"/>
	<rect x="112.6" y="192.4" class="st1" width="5.3" height="5.3"/>
	<rect x="112.6" y="203.1" class="st1" width="5.3" height="5.3"/>
	<rect x="117.9" y="43.5" class="st1" width="5.3" height="5.3"/>
	<rect x="117.9" y="64.8" class="st1" width="5.3" height="10.6"/>
	<rect x="117.9" y="86" class="st1" width="5.3" height="5.3"/>
	<rect x="117.9" y="123.3" class="st1" width="5.3" height="5.3"/>
	<rect x="117.9" y="133.9" class="st1" width="5.3" height="16"/>
	<rect x="117.9" y="149.9" class="st1" width="5.3" height="10.6"/>
	<rect x="117.9" y="171.2" class="st1" width="5.3" height="5.3"/>
	<rect x="123.2" y="32.8" class="st1" width="5.3" height="5.3"/>
	<rect x="123.2" y="54.1" class="st1" width="5.3" height="5.3"/>
	<rect x="123.2" y="70.1" class="st1" width="5.3" height="5.3"/>
	<rect x="123.2" y="80.7" class="st1" width="5.3" height="5.3"/>
	<rect x="123.2" y="96.7" class="st1" width="5.3" height="5.3"/>
	<rect x="123.2" y="107.3" class="st1" width="5.3" height="16"/>
	<rect x="123.2" y="128.6" class="st1" width="5.3" height="5.3"/>
	<rect x="123.2" y="139.2" class="st1" width="5.3" height="5.3"/>
	<rect x="123.2" y="149.9" class="st1" width="5.3" height="21.3"/>
	<rect x="123.2" y="176.5" class="st1" width="5.3" height="16"/>
	<rect x="123.2" y="197.8" class="st1" width="5.3" height="10.6"/>
	<rect x="128.5" y="43.5" class="st1" width="5.3" height="5.3"/>
	<rect x="128.5" y="48.8" class="st1" width="5.3" height="10.6"/>
	<rect x="128.5" y="64.8" class="st1" width="5.3" height="5.3"/>
	<rect x="128.5" y="75.4" class="st1" width="5.3" height="5.3"/>
	<rect x="128.5" y="86" class="st1" width="5.3" height="5.3"/>
	<rect x="128.5" y="96.7" class="st1" width="5.3" height="5.3"/>
	<rect x="128.5" y="107.3" class="st1" width="5.3" height="5.3"/>
	<rect x="128.5" y="123.3" class="st1" width="5.3" height="10.6"/>
	<rect x="128.5" y="139.2" class="st1" width="5.3" height="5.3"/>
	<rect x="128.5" y="149.9" class="st1" width="5.3" height="5.3"/>
	<rect x="128.5" y="160.5" class="st1" width="5.3" height="10.6"/>
	<rect x="133.8" y="32.8" class="st1" width="5.3" height="10.6"/>
	<rect x="133.8" y="48.8" class="st1" width="5.3" height="10.6"/>
	<rect x="133.8" y="75.4" class="st1" width="5.3" height="5.3"/>
	<rect x="133.8" y="96.7" class="st1" width="5.3" height="5.3"/>
	<rect x="133.8" y="107.3" class="st1" width="5.3" height="5.3"/>
	<rect x="133.8" y="118" class="st1" width="5.3" height="5.3"/>
	<rect x="133.8" y="139.2" class="st1" width="5.3" height="10.6"/>
	<rect x="133.8" y="149.9" class="st1" width="5.3" height="5.3"/>
	<rect x="133.8" y="181.8" class="st1" width="5.3" height="5.3"/>
	<rect x="133.8" y="192.4" class="st1" width="5.3" height="5.3"/>
	<rect x="133.8" y="203.1" class="st1" width="5.3" height="5.3"/>
	<rect x="139.2" y="38.2" class="st1" width="5.3" height="5.3"/>
	<rect x="139.2" y="48.8" class="st1" width="5.3" height="10.6"/>
	<rect x="139.2" y="64.8" class="st1" width="5.3" height="5.3"/>
	<rect x="139.2" y="86" class="st1" width="5.3" height="5.3"/>
	<rect x="139.2" y="107.3" class="st1" width="5.3" height="5.3"/>
	<rect x="139.2" y="123.3" class="st1" width="5.3" height="10.6"/>
	<rect x="139.2" y="139.2" class="st1" width="5.3" height="5.3"/>
	<rect x="139.2" y="149.9" class="st1" width="5.3" height="21.3"/>
	<rect x="139.2" y="171.2" class="st1" width="5.3" height="26.6"/>
	<rect x="139.2" y="197.8" class="st1" width="5.3" height="5.3"/>
	<rect x="144.5" y="86" class="st1" width="5.3" height="5.3"/>
	<rect x="144.5" y="96.7" class="st1" width="5.3" height="16"/>
	<rect x="144.5" y="123.3" class="st1" width="5.3" height="16"/>
	<rect x="144.5" y="144.6" class="st1" width="5.3" height="5.3"/>
	<rect x="144.5" y="149.9" class="st1" width="5.3" height="5.3"/>
	<rect x="144.5" y="160.5" class="st1" width="5.3" height="5.3"/>
	<rect x="144.5" y="181.8" class="st1" width="5.3" height="5.3"/>
	<rect x="144.5" y="192.4" class="st1" width="5.3" height="5.3"/>
	<rect x="144.5" y="203.1" class="st1" width="5.3" height="5.3"/>
	<rect x="149.8" y="32.8" class="st1" width="5.3" height="16"/>
	<rect x="149.8" y="48.8" class="st1" width="5.3" height="21.3"/>
	<rect x="149.8" y="80.7" class="st1" width="5.3" height="10.6"/>
	<rect x="149.8" y="107.3" class="st1" width="5.3" height="5.3"/>
	<rect x="149.8" y="133.9" class="st1" width="5.3" height="5.3"/>
	<rect x="149.8" y="149.9" class="st1" width="5.3" height="5.3"/>
	<rect x="149.8" y="160.5" class="st1" width="5.3" height="5.3"/>
	<rect x="149.8" y="171.2" class="st1" width="5.3" height="5.3"/>
	<rect x="149.8" y="181.8" class="st1" width="5.3" height="10.6"/>
	<rect x="149.8" y="203.1" class="st1" width="5.3" height="5.3"/>
	<rect x="155.1" y="32.8" class="st1" width="5.3" height="5.3"/>
	<rect x="155.1" y="64.8" class="st1" width="5.3" height="5.3"/>
	<rect x="155.1" y="75.4" class="st1" width="5.3" height="5.3"/>
	<rect x="155.1" y="86" class="st1" width="5.3" height="5.3"/>
	<rect x="155.1" y="102" class="st1" width="5.3" height="5.3"/>
	<rect x="155.1" y="112.6" class="st1" width="5.3" height="5.3"/>
	<rect x="155.1" y="123.3" class="st1" width="5.3" height="10.6"/>
	<rect x="155.1" y="149.9" class="st1" width="5.3" height="5.3"/>
	<rect x="155.1" y="160.5" class="st1" width="5.3" height="5.3"/>
	<rect x="155.1" y="181.8" class="st1" width="5.3" height="16"/>
	<rect x="155.1" y="203.1" class="st1" width="5.3" height="5.3"/>
	<rect x="160.4" y="32.8" class="st1" width="5.3" height="5.3"/>
	<rect x="160.4" y="43.5" class="st2" width="5.3" height="5.3"/>
	<rect x="160.4" y="48.8" class="st2" width="5.3" height="10.6"/>
	<rect x="160.4" y="64.8" class="st1" width="5.3" height="5.3"/>
	<rect x="160.4" y="80.7" class="st1" width="5.3" height="10.6"/>
	<rect x="160.4" y="96.7" class="st1" width="5.3" height="16"/>
	<rect x="160.4" y="118" class="st1" width="5.3" height="16"/>
	<rect x="160.4" y="139.2" class="st1" width="5.3" height="10.6"/>
	<rect x="160.4" y="149.9" class="st1" width="5.3" height="5.3"/>
	<rect x="160.4" y="160.5" class="st1" width="5.3" height="10.6"/>
	<rect x="160.4" y="171.2" class="st1" width="5.3" height="16"/>
	<rect x="160.4" y="203.1" class="st1" width="5.3" height="5.3"/>
	<rect x="165.8" y="32.8" class="st1" width="5.3" height="5.3"/>
	<rect x="165.8" y="43.5" class="st2" width="5.3" height="5.3"/>
	<rect x="165.8" y="48.8" class="st2" width="5.3" height="10.6"/>
	<rect x="165.8" y="64.8" class="st1" width="5.3" height="5.3"/>
	<rect x="165.8" y="91.4" class="st1" width="5.3" height="5.3"/>
	<rect x="165.8" y="102" class="st1" width="5.3" height="5.3"/>
	<rect x="165.8" y="112.6" class="st1" width="5.3" height="5.3"/>
	<rect x="165.8" y="128.6" class="st1" width="5.3" height="5.3"/>
	<rect x="165.8" y="139.2" class="st1" width="5.3" height="5.3"/>
	<rect x="165.8" y="149.9" class="st1" width="5.3" height="5.3"/>
	<rect x="165.8" y="160.5" class="st1" width="5.3" height="5.3"/>
	<rect x="165.8" y="171.2" class="st1" width="5.3" height="10.6"/>
	<rect x="165.8" y="192.4" class="st1" width="5.3" height="5.3"/>
	<rect x="165.8" y="197.8" class="st1" width="5.3" height="5.3"/>
	<rect x="171.1" y="32.8" class="st1" width="5.3" height="5.3"/>
	<rect x="171.1" y="43.5" class="st2" width="5.3" height="5.3"/>
	<rect x="171.1" y="48.8" class="st2" width="5.3" height="10.6"/>
	<rect x="171.1" y="64.8" class="st1" width="5.3" height="5.3"/>
	<rect x="171.1" y="75.4" class="st1" width="5.3" height="5.3"/>
	<rect x="171.1" y="86" class="st1" width="5.3" height="21.3"/>
	<rect x="171.1" y="112.6" class="st1" width="5.3" height="10.6"/>
	<rect x="171.1" y="128.6" class="st1" width="5.3" height="10.6"/>
	<rect x="171.1" y="149.9" class="st1" width="5.3" height="10.6"/>
	<rect x="171.1" y="176.5" class="st1" width="5.3" height="10.6"/>
	<rect x="171.1" y="192.4" class="st1" width="5.3" height="5.3"/>
	<rect x="171.1" y="197.8" class="st1" width="5.3" height="10.6"/>
	<rect x="176.4" y="32.8" class="st1" width="5.3" height="5.3"/>
	<rect x="176.4" y="64.8" class="st1" width="5.3" height="5.3"/>
	<rect x="176.4" y="80.7" class="st1" width="5.3" height="10.6"/>
	<rect x="176.4" y="96.7" class="st1" width="5.3" height="5.3"/>
	<rect x="176.4" y="107.3" class="st1" width="5.3" height="5.3"/>
	<rect x="176.4" y="118" class="st1" width="5.3" height="10.6"/>
	<rect x="176.4" y="139.2" class="st1" width="5.3" height="10.6"/>
	<rect x="176.4" y="155.2" class="st1" width="5.3" height="16"/>
	<rect x="176.4" y="171.2" class="st1" width="5.3" height="5.3"/>
	<rect x="176.4" y="181.8" class="st1" width="5.3" height="5.3"/>
	<rect x="176.4" y="192.4" class="st1" width="5.3" height="5.3"/>
	<rect x="181.7" y="32.8" class="st1" width="5.3" height="16"/>
	<rect x="181.7" y="48.8" class="st1" width="5.3" height="21.3"/>
	<rect x="181.7" y="75.4" class="st1" width="5.3" height="5.3"/>
	<rect x="181.7" y="96.7" class="st1" width="5.3" height="10.6"/>
	<rect x="181.7" y="118" class="st1" width="5.3" height="5.3"/>
	<rect x="181.7" y="139.2" class="st1" width="5.3" height="5.3"/>
	<rect x="181.7" y="155.2" class="st1" width="5.3" height="5.3"/>
	<rect x="181.7" y="181.8" class="st1" width="5.3" height="16"/>
	<rect x="181.7" y="203.1" class="st1" width="5.3" height="5.3"/>
	<polygon class="st2" points="228.8,49.3 228.8,41.9 228.8,36.7 225.8,36.7 223.6,36.7 223.6,33.8 221,33.8 221,31.5 221,28.6 
		221,26.3 221,21.7 215.5,21.7 213.2,21.7 213.2,21.1 213.2,15.9 210.3,15.9 208,15.9 208,13 205.1,13 202.5,13 202.5,8.1 
		202.5,5.2 197.3,5.2 189.8,5.2 189.8,2.9 189.8,0 186.9,0 137.6,0 134.6,0 134.6,2.9 134.6,7.7 119.4,7.7 116.5,7.7 116.5,10.6 
		116.5,15.6 114.2,15.6 111.3,15.6 111.3,18.5 111.3,24.7 103.5,24.7 103.5,31.5 103.5,36.4 99.9,36.4 97,36.4 97,39.3 97,42 
		97,44.1 90.8,44.1 87.9,44.1 87.9,47.1 87.9,54.5 83,54.5 80.1,54.5 80.1,57.5 80.1,83.1 77.8,83.1 74.9,83.1 74.9,86 74.9,117.2 
		74.9,120.1 80.5,120.1 80.5,122.4 80.5,125.3 80.4,125.3 82.7,125.3 82.7,145.4 77.8,145.4 74.9,145.4 74.9,148.3 74.9,150.6 
		70.1,150.6 67.1,150.6 67.1,153.5 67.1,166.2 64.9,166.2 61.9,166.2 61.9,169.1 61.9,171.4 57.1,171.4 54.1,171.4 54.1,174.3 
		54.1,205.5 54.1,208.4 57.1,208.4 205.1,208.4 208,208.4 208,205.5 208,190.2 210.3,190.2 213.2,190.2 213.2,187.3 213.2,177.2 
		215.8,177.2 215.8,174.3 215.8,172 218.1,172 221,172 221,169.1 221,166.8 223.6,166.8 223.6,163.9 223.6,150.2 225.8,150.2 
		228.8,150.2 228.8,145.7 228.8,104.2 230.5,104.2 232.9,104.2 232.9,99 232.9,52.3 232.9,49.3 	"/>
	<rect x="109" y="189.9" class="st0" width="2.6" height="2.6"/>
	<rect x="199.9" y="184.7" class="st3" width="2.6" height="2.6"/>
	<rect x="194.7" y="169.1" class="st0" width="2.6" height="2.6"/>
	<polygon class="st0" points="80.4,125 80.4,127.6 80.4,130.2 80.4,132.8 80.4,135.4 80.4,137.9 83,137.9 83,135.4 83,132.8 
		83,130.2 83,127.6 83,125 	"/>
	<rect x="116.8" y="101.6" class="st0" width="2.6" height="2.6"/>
	<rect x="119.4" y="96.4" class="st0" width="2.6" height="2.6"/>
	<rect x="77.8" y="88.6" class="st4" width="2.6" height="2.6"/>
	<rect x="160.9" y="86" class="st0" width="2.6" height="2.6"/>
	<rect x="77.8" y="86" class="st5" width="2.6" height="2.6"/>
	<rect x="96" y="80.8" class="st0" width="2.6" height="2.6"/>
	<rect x="186.9" y="78.2" class="st0" width="2.6" height="2.6"/>
	<rect x="140.2" y="75.6" class="st0" width="2.6" height="2.6"/>
	<rect x="184.3" y="62.7" class="st0" width="2.6" height="2.6"/>
	<rect x="142.8" y="54.9" class="st0" width="2.6" height="2.6"/>
	<rect x="179.1" y="28.9" class="st0" width="2.6" height="2.6"/>
	<rect x="142.8" y="28.9" class="st0" width="2.6" height="2.6"/>
	<rect x="124.6" y="13.3" class="st0" width="2.6" height="2.6"/>
	<polygon class="st0" points="109,202.9 106.4,202.9 106.4,200.3 103.8,200.3 101.2,200.3 101.2,202.9 98.6,202.9 98.6,205.5 
		101.2,205.5 103.8,205.5 106.4,205.5 109,205.5 111.6,205.5 114.2,205.5 114.2,202.9 111.6,202.9 	"/>
	<polygon class="st0" points="90.8,202.9 88.2,202.9 88.2,205.5 90.8,205.5 93.4,205.5 96,205.5 96,202.9 93.4,202.9 	"/>
	<rect x="197.3" y="200.3" class="st0" width="2.6" height="2.6"/>
	<rect x="189.5" y="200.3" class="st0" width="2.6" height="2.6"/>
	<rect x="116.8" y="200.3" class="st0" width="2.6" height="2.6"/>
	<rect x="132.4" y="195.1" class="st0" width="2.6" height="2.6"/>
	<rect x="122" y="195.1" class="st0" width="2.6" height="2.6"/>
	<polygon class="st0" points="114.2,195.1 114.2,197.7 114.2,200.3 116.8,200.3 116.8,197.7 119.4,197.7 119.4,195.1 116.8,195.1 	
		"/>
	<polygon class="st0" points="101.2,195.1 98.6,195.1 98.6,197.7 96,197.7 96,200.3 98.6,200.3 101.2,200.3 101.2,197.7 	"/>
	<rect x="142.8" y="192.5" class="st0" width="2.6" height="2.6"/>
	<rect x="124.6" y="192.5" class="st0" width="2.6" height="2.6"/>
	<rect x="59.7" y="192.5" class="st0" width="2.6" height="2.6"/>
	<rect x="160.9" y="189.9" class="st0" width="2.6" height="2.6"/>
	<rect x="145.4" y="189.9" class="st0" width="2.6" height="2.6"/>
	<polygon class="st0" points="137.6,192.5 140.2,192.5 140.2,189.9 137.6,189.9 135,189.9 135,192.5 	"/>
	<rect x="127.2" y="189.9" class="st0" width="2.6" height="2.6"/>
	<polygon class="st0" points="124.6,192.5 124.6,189.9 122,189.9 119.4,189.9 119.4,192.5 119.4,195.1 122,195.1 122,192.5 	"/>
	<rect x="186.9" y="187.3" class="st0" width="2.6" height="2.6"/>
	<rect x="148" y="187.3" class="st0" width="2.6" height="2.6"/>
	<rect x="132.4" y="187.3" class="st0" width="2.6" height="2.6"/>
	<rect x="124.6" y="187.3" class="st0" width="2.6" height="2.6"/>
	<polygon class="st0" points="75.3,189.9 77.8,189.9 77.8,187.3 77.8,184.7 75.3,184.7 72.7,184.7 72.7,187.3 75.3,187.3 	"/>
	<rect x="197.3" y="184.7" class="st0" width="2.6" height="2.6"/>
	<polygon class="st0" points="135,184.7 135,187.3 137.6,187.3 140.2,187.3 140.2,184.7 137.6,184.7 	"/>
	<polygon class="st0" points="119.4,184.7 122,184.7 122,182.1 124.6,182.1 124.6,179.5 122,179.5 122,176.9 122,174.3 122,171.7 
		119.4,171.7 119.4,174.3 116.8,174.3 116.8,176.9 119.4,176.9 119.4,179.5 119.4,182.1 116.8,182.1 116.8,184.7 116.8,187.3 
		114.2,187.3 114.2,189.9 116.8,189.9 119.4,189.9 119.4,187.3 	"/>
	<rect x="106.4" y="184.7" class="st0" width="2.6" height="2.6"/>
	<polygon class="st0" points="202.5,182.1 202.5,184.7 202.5,187.3 205.1,187.3 207.7,187.3 207.7,184.7 207.7,182.1 205.1,182.1 	
		"/>
	<polygon class="st0" points="148,182.1 148,184.7 150.6,184.7 153.1,184.7 153.1,182.1 150.6,182.1 	"/>
	<rect x="140.2" y="182.1" class="st0" width="2.6" height="2.6"/>
	<rect x="132.4" y="182.1" class="st0" width="2.6" height="2.6"/>
	<rect x="171.3" y="179.5" class="st0" width="2.6" height="2.6"/>
	<rect x="160.9" y="179.5" class="st0" width="2.6" height="2.6"/>
	<polygon class="st0" points="114.2,179.5 114.2,176.9 111.6,176.9 111.6,179.5 111.6,182.1 114.2,182.1 116.8,182.1 116.8,179.5 	
		"/>
	<rect x="57.1" y="179.5" class="st0" width="2.6" height="2.6"/>
	<rect x="199.9" y="176.9" class="st0" width="2.6" height="2.6"/>
	<rect x="194.7" y="176.9" class="st0" width="2.6" height="2.6"/>
	<rect x="176.5" y="176.9" class="st0" width="2.6" height="2.6"/>
	<rect x="163.5" y="176.9" class="st0" width="2.6" height="2.6"/>
	<rect x="150.6" y="176.9" class="st0" width="2.6" height="2.6"/>
	<rect x="145.4" y="176.9" class="st0" width="2.6" height="2.6"/>
	<rect x="210.3" y="174.3" class="st0" width="2.6" height="2.6"/>
	<rect x="173.9" y="174.3" class="st0" width="2.6" height="2.6"/>
	<rect x="148" y="174.3" class="st0" width="2.6" height="2.6"/>
	<polygon class="st0" points="142.8,176.9 142.8,174.3 142.8,171.7 140.2,171.7 137.6,171.7 137.6,174.3 140.2,174.3 140.2,176.9 	
		"/>
	<rect x="83" y="174.3" class="st0" width="2.6" height="2.6"/>
	<rect x="150.6" y="171.7" class="st0" width="2.6" height="2.6"/>
	<polygon class="st0" points="111.6,171.7 109,171.7 109,174.3 109,176.9 111.6,176.9 111.6,174.3 	"/>
	<polygon class="st0" points="176.5,169.1 176.5,166.5 173.9,166.5 173.9,169.1 173.9,171.7 176.5,171.7 	"/>
	<rect x="153.1" y="169.1" class="st0" width="2.6" height="2.6"/>
	<rect x="142.8" y="169.1" class="st0" width="2.6" height="2.6"/>
	<rect x="127.2" y="169.1" class="st0" width="2.6" height="2.6"/>
	<rect x="122" y="169.1" class="st0" width="2.6" height="2.6"/>
	<polygon class="st0" points="116.8,169.1 119.4,169.1 122,169.1 122,166.5 122,163.9 119.4,163.9 119.4,166.5 116.8,166.5 
		114.2,166.5 111.6,166.5 111.6,169.1 114.2,169.1 114.2,171.7 114.2,174.3 116.8,174.3 116.8,171.7 	"/>
	<rect x="132.4" y="166.5" class="st0" width="2.6" height="2.6"/>
	<rect x="137.6" y="163.9" class="st0" width="2.6" height="2.6"/>
	<rect x="122" y="161.3" class="st0" width="2.6" height="2.6"/>
	<polygon class="st0" points="116.8,161.3 114.2,161.3 111.6,161.3 111.6,163.9 114.2,163.9 116.8,163.9 119.4,163.9 119.4,161.3 	
		"/>
	<rect x="93.4" y="161.3" class="st0" width="2.6" height="2.6"/>
	<rect x="77.8" y="161.3" class="st0" width="2.6" height="2.6"/>
	<rect x="124.6" y="158.7" class="st0" width="2.6" height="2.6"/>
	<rect x="98.6" y="158.7" class="st0" width="2.6" height="2.6"/>
	<rect x="129.8" y="156.1" class="st0" width="2.6" height="2.6"/>
	<rect x="116.8" y="156.1" class="st0" width="2.6" height="2.6"/>
	<polygon class="st0" points="137.6,156.1 137.6,153.5 137.6,150.9 137.6,148.3 140.2,148.3 140.2,145.7 137.6,145.7 135,145.7 
		135,148.3 135,150.9 132.4,150.9 129.8,150.9 129.8,153.5 132.4,153.5 132.4,156.1 135,156.1 	"/>
	<rect x="124.6" y="153.5" class="st0" width="2.6" height="2.6"/>
	<rect x="119.4" y="153.5" class="st0" width="2.6" height="2.6"/>
	<rect x="106.4" y="153.5" class="st0" width="2.6" height="2.6"/>
	<polygon class="st0" points="186.9,153.5 186.9,156.1 189.5,156.1 189.5,153.5 189.5,150.9 186.9,150.9 	"/>
	<rect x="109" y="148.3" class="st0" width="2.6" height="2.6"/>
	<polygon class="st0" points="202.5,145.7 199.9,145.7 199.9,148.3 202.5,148.3 205.1,148.3 205.1,145.7 	"/>
	<polygon class="st0" points="116.8,148.3 114.2,148.3 114.2,150.9 116.8,150.9 119.4,150.9 119.4,148.3 119.4,145.7 116.8,145.7 	
		"/>
	<rect x="111.6" y="145.7" class="st0" width="2.6" height="2.6"/>
	<rect x="218.1" y="143.1" class="st0" width="2.6" height="2.6"/>
	<rect x="194.7" y="143.1" class="st0" width="2.6" height="2.6"/>
	<polygon class="st0" points="186.9,145.7 189.5,145.7 189.5,148.3 192.1,148.3 192.1,145.7 192.1,143.1 189.5,143.1 186.9,143.1 
		184.3,143.1 181.7,143.1 181.7,145.7 184.3,145.7 	"/>
	<polygon class="st0" points="132.4,143.1 129.8,143.1 129.8,145.7 129.8,148.3 132.4,148.3 132.4,145.7 135,145.7 135,143.1 	"/>
	<rect x="119.4" y="143.1" class="st0" width="2.6" height="2.6"/>
	<rect x="88.2" y="143.1" class="st0" width="2.6" height="2.6"/>
	<polygon class="st0" points="80.4,143.1 83,143.1 83,140.5 83,137.9 80.4,137.9 80.4,135.4 80.4,132.8 80.4,130.2 80.4,127.6 
		80.4,125 83,125 83,122.4 80.4,122.4 80.4,119.8 80.4,117.2 77.8,117.2 77.8,119.8 77.8,122.4 77.8,125 77.8,127.6 77.8,130.2 
		77.8,132.8 77.8,135.4 77.8,137.9 77.8,140.5 77.8,143.1 77.8,145.7 80.4,145.7 	"/>
	<rect x="135" y="140.5" class="st0" width="2.6" height="2.6"/>
	<rect x="127.2" y="140.5" class="st0" width="2.6" height="2.6"/>
	<polygon class="st0" points="173.9,140.5 176.5,140.5 176.5,137.9 173.9,137.9 171.3,137.9 171.3,140.5 	"/>
	<polygon class="st0" points="135,140.5 135,137.9 135,135.4 132.4,135.4 129.8,135.4 129.8,137.9 129.8,140.5 132.4,140.5 	"/>
	<polygon class="st0" points="111.6,137.9 109,137.9 109,140.5 111.6,140.5 114.2,140.5 116.8,140.5 116.8,137.9 114.2,137.9 	"/>
	<polygon class="st0" points="145.4,135.4 145.4,132.8 142.8,132.8 142.8,135.4 142.8,138 145.4,138 	"/>
	<rect x="122" y="135.4" class="st0" width="2.6" height="2.6"/>
	<rect x="116.8" y="135.4" class="st0" width="2.6" height="2.6"/>
	<rect x="90.8" y="135.4" class="st0" width="2.6" height="2.6"/>
	<rect x="124.6" y="132.8" class="st0" width="2.6" height="2.6"/>
	<rect x="111.6" y="132.8" class="st0" width="2.6" height="2.6"/>
	<rect x="96" y="130.2" class="st0" width="2.6" height="2.6"/>
	<rect x="90.8" y="130.2" class="st0" width="2.6" height="2.6"/>
	<rect x="127.2" y="127.6" class="st0" width="2.6" height="2.6"/>
	<rect x="122" y="127.6" class="st0" width="2.6" height="2.6"/>
	<polygon class="st0" points="119.4,127.6 116.8,127.6 116.8,130.2 116.8,132.8 119.4,132.8 119.4,135.4 122,135.4 122,132.8 
		122,130.2 119.4,130.2 	"/>
	<polygon class="st0" points="145.4,125 145.4,122.4 142.8,122.4 140.2,122.4 140.2,125 142.8,125 142.8,127.6 142.8,130.2 
		145.4,130.2 148,130.2 148,127.6 145.4,127.6 	"/>
	<polygon class="st0" points="137.6,127.6 137.6,125 137.6,122.4 135,122.4 132.4,122.4 132.4,125 132.4,127.6 135,127.6 	"/>
	<rect x="124.6" y="125" class="st0" width="2.6" height="2.6"/>
	<polygon class="st0" points="101.2,125 98.6,125 98.6,122.4 96,122.4 96,125 96,127.6 98.6,127.6 101.2,127.6 	"/>
	<rect x="223.3" y="122.4" class="st0" width="2.6" height="2.6"/>
	<rect x="114.2" y="122.4" class="st0" width="2.6" height="2.6"/>
	<polygon class="st0" points="106.4,125 103.8,125 103.8,127.6 106.4,127.6 106.4,130.2 106.4,132.8 109,132.8 111.6,132.8 
		111.6,130.2 109,130.2 109,127.6 109,125 109,122.4 106.4,122.4 	"/>
	<rect x="116.8" y="119.8" class="st0" width="2.6" height="2.6"/>
	<polygon class="st0" points="111.6,119.8 111.6,117.2 109,117.2 109,119.8 109,122.4 111.6,122.4 114.2,122.4 114.2,119.8 	"/>
	<rect x="88.2" y="119.8" class="st0" width="2.6" height="2.6"/>
	<rect x="145.4" y="117.2" class="st0" width="2.6" height="2.6"/>
	<rect x="137.6" y="117.2" class="st0" width="2.6" height="2.6"/>
	<rect x="124.6" y="117.2" class="st0" width="2.6" height="2.6"/>
	<rect x="119.4" y="117.2" class="st0" width="2.6" height="2.6"/>
	<rect x="103.8" y="117.2" class="st0" width="2.6" height="2.6"/>
	<rect x="101.2" y="114.6" class="st0" width="2.6" height="2.6"/>
	<rect x="93.4" y="114.6" class="st0" width="2.6" height="2.6"/>
	<polygon class="st0" points="103.8,112 103.8,114.6 106.4,114.6 109,114.6 109,112 106.4,112 	"/>
	<polygon class="st0" points="109,109.4 109,112 111.6,112 114.2,112 114.2,109.4 114.2,106.8 111.6,106.8 111.6,109.4 	"/>
	<polygon class="st0" points="88.2,106.8 88.2,104.2 85.6,104.2 85.6,106.8 85.6,109.4 88.2,109.4 	"/>
	<rect x="119.4" y="104.2" class="st0" width="2.6" height="2.6"/>
	<polygon class="st0" points="101.2,104.2 101.2,101.6 98.6,101.6 98.6,104.2 98.6,106.8 101.2,106.8 	"/>
	<polygon class="st0" points="111.6,101.6 109,101.6 109,104.2 109,106.8 111.6,106.8 111.6,104.2 	"/>
	<polygon class="st0" points="122,99 119.4,99 119.4,101.6 122,101.6 124.6,101.6 124.6,99 	"/>
	<rect x="114.2" y="99" class="st0" width="2.6" height="2.6"/>
	<rect x="111.6" y="96.4" class="st0" width="2.6" height="2.6"/>
	<polygon class="st0" points="140.2,96.4 140.2,93.8 137.6,93.8 137.6,91.2 135,91.2 135,88.6 137.6,88.6 137.6,91.2 140.2,91.2 
		140.2,88.6 142.8,88.6 142.8,86 140.2,86 137.6,86 135,86 132.4,86 129.8,86 129.8,83.4 132.4,83.4 132.4,80.8 132.4,78.2 
		129.8,78.2 129.8,80.8 127.2,80.8 127.2,83.4 124.6,83.4 122,83.4 122,86 124.6,86 124.6,88.6 127.2,88.6 127.2,91.2 129.8,91.2 
		129.8,93.8 132.4,93.8 135,93.8 135,96.4 137.6,96.4 	"/>
	<rect x="127.2" y="93.8" class="st0" width="2.6" height="2.6"/>
	<rect x="122" y="93.8" class="st0" width="2.6" height="2.6"/>
	<polygon class="st0" points="114.2,93.8 114.2,96.4 116.8,96.4 119.4,96.4 119.4,93.8 116.8,93.8 	"/>
	<polygon class="st0" points="220.7,93.8 220.7,91.2 220.7,88.6 218.1,88.6 215.5,88.6 215.5,91.2 215.5,93.8 218.1,93.8 	"/>
	<rect x="124.6" y="91.2" class="st0" width="2.6" height="2.6"/>
	<rect x="119.4" y="91.2" class="st0" width="2.6" height="2.6"/>
	<rect x="93.4" y="91.2" class="st0" width="2.6" height="2.6"/>
	<rect x="122" y="88.6" class="st0" width="2.6" height="2.6"/>
	<rect x="114.2" y="88.6" class="st0" width="2.6" height="2.6"/>
	<rect x="80.4" y="88.6" class="st0" width="2.6" height="2.6"/>
	<rect x="119.4" y="86" class="st0" width="2.6" height="2.6"/>
	<polygon class="st0" points="210.3,86 212.9,86 212.9,83.4 210.3,83.4 210.3,80.8 207.7,80.8 205.1,80.8 205.1,83.4 207.7,83.4 
		207.7,86 	"/>
	<polygon class="st0" points="153.1,83.4 150.6,83.4 150.6,86 150.6,88.6 153.1,88.6 153.1,86 	"/>
	<rect x="142.8" y="83.4" class="st0" width="2.6" height="2.6"/>
	<rect x="116.8" y="83.4" class="st0" width="2.6" height="2.6"/>
	<rect x="199.9" y="80.8" class="st0" width="2.6" height="2.6"/>
	<rect x="153.1" y="80.8" class="st0" width="2.6" height="2.6"/>
	<rect x="135" y="80.8" class="st0" width="2.6" height="2.6"/>
	<rect x="119.4" y="80.8" class="st0" width="2.6" height="2.6"/>
	<polygon class="st0" points="90.8,80.8 88.2,80.8 88.2,83.4 88.2,86 88.2,88.6 88.2,91.2 88.2,93.8 90.8,93.8 90.8,91.2 90.8,88.6 
		93.4,88.6 96,88.6 96,86 93.4,86 93.4,83.4 90.8,83.4 	"/>
	<rect x="171.3" y="78.2" class="st0" width="2.6" height="2.6"/>
	<rect x="163.5" y="78.2" class="st0" width="2.6" height="2.6"/>
	<rect x="140.2" y="78.2" class="st0" width="2.6" height="2.6"/>
	<rect x="124.6" y="78.2" class="st0" width="2.6" height="2.6"/>
	<rect x="106.4" y="78.2" class="st0" width="2.6" height="2.6"/>
	<rect x="101.2" y="78.2" class="st0" width="2.6" height="2.6"/>
	<polygon class="st0" points="93.4,78.2 93.4,80.8 93.4,83.4 96,83.4 96,80.8 98.6,80.8 98.6,78.2 96,78.2 	"/>
	<rect x="85.6" y="78.2" class="st0" width="2.6" height="2.6"/>
	<rect x="179.1" y="75.6" class="st0" width="2.6" height="2.6"/>
	<rect x="168.7" y="75.6" class="st0" width="2.6" height="2.6"/>
	<rect x="135" y="75.6" class="st0" width="2.6" height="2.6"/>
	<polygon class="st0" points="114.2,78.2 114.2,80.8 116.8,80.8 116.8,78.2 116.8,75.6 114.2,75.6 	"/>
	<polygon class="st0" points="111.6,75.6 111.6,73 109,73 109,75.6 109,78.2 111.6,78.2 	"/>
	<polygon class="st0" points="205.1,75.6 207.7,75.6 207.7,73 207.7,70.4 205.1,70.4 205.1,73 	"/>
	<polygon class="st0" points="176.5,73 173.9,73 173.9,75.6 176.5,75.6 179.1,75.6 179.1,73 	"/>
	<rect x="166.1" y="73" class="st0" width="2.6" height="2.6"/>
	<polygon class="st0" points="132.4,75.6 135,75.6 135,73 132.4,73 129.8,73 129.8,75.6 	"/>
	<rect x="116.8" y="73" class="st0" width="2.6" height="2.6"/>
	<polygon class="st0" points="106.4,73 106.4,70.4 103.8,70.4 103.8,73 103.8,75.6 103.8,78.2 106.4,78.2 106.4,75.6 	"/>
	<polygon class="st0" points="101.2,73 98.6,73 98.6,75.6 98.6,78.2 101.2,78.2 101.2,75.6 	"/>
	<polygon class="st0" points="96,75.6 96,73 93.4,73 90.8,73 88.2,73 88.2,75.6 90.8,75.6 90.8,78.2 93.4,78.2 93.4,75.6 	"/>
	<rect x="179.1" y="70.4" class="st0" width="2.6" height="2.6"/>
	<polygon class="st0" points="119.4,70.4 119.4,73 122,73 124.6,73 124.6,70.4 122,70.4 	"/>
	<polygon class="st0" points="142.8,67.8 140.2,67.8 137.6,67.8 137.6,70.4 137.6,73 140.2,73 140.2,75.6 142.8,75.6 145.4,75.6 
		145.4,73 145.4,70.4 142.8,70.4 	"/>
	<polygon class="st0" points="124.6,67.8 124.6,70.4 127.2,70.4 127.2,73 129.8,73 129.8,70.4 129.8,67.8 127.2,67.8 	"/>
	<rect x="116.8" y="67.8" class="st0" width="2.6" height="2.6"/>
	<rect x="90.8" y="67.8" class="st0" width="2.6" height="2.6"/>
	<rect x="168.7" y="65.2" class="st0" width="2.6" height="2.6"/>
	<polygon class="st0" points="124.6,67.8 124.6,65.2 122,65.2 119.4,65.2 119.4,67.8 122,67.8 	"/>
	<rect x="109" y="65.2" class="st0" width="2.6" height="2.6"/>
	<polygon class="st0" points="106.4,67.8 106.4,65.2 103.8,65.2 101.2,65.2 101.2,67.8 103.8,67.8 	"/>
	<rect x="93.4" y="65.2" class="st0" width="2.6" height="2.6"/>
	<rect x="85.6" y="65.2" class="st0" width="2.6" height="2.6"/>
	<rect x="228.4" y="62.7" class="st0" width="2.6" height="2.6"/>
	<rect x="111.6" y="62.7" class="st0" width="2.6" height="2.6"/>
	<rect x="88.2" y="62.7" class="st0" width="2.6" height="2.6"/>
	<polygon class="st0" points="103.8,60.1 103.8,62.7 106.4,62.7 106.4,60.1 109,60.1 111.6,60.1 114.2,60.1 114.2,57.5 111.6,57.5 
		109,57.5 106.4,57.5 103.8,57.5 	"/>
	<polygon class="st0" points="90.8,57.5 90.8,54.9 88.2,54.9 88.2,57.5 88.2,60.1 90.8,60.1 	"/>
	<rect x="114.2" y="54.9" class="st0" width="2.6" height="2.6"/>
	<polygon class="st0" points="93.4,57.5 96,57.5 96,60.1 98.6,60.1 98.6,57.5 101.2,57.5 101.2,54.9 98.6,54.9 96,54.9 96,52.3 
		98.6,52.3 101.2,52.3 101.2,49.7 101.2,47.1 98.6,47.1 96,47.1 96,49.7 93.4,49.7 93.4,52.3 90.8,52.3 90.8,54.9 93.4,54.9 	"/>
	<rect x="83" y="54.9" class="st0" width="2.6" height="2.6"/>
	<path class="st0" d="M228.4,52.3h-2.6h-2.6v-2.6v-2.6h2.6v-2.6v-2.6v-2.6v-2.6h-2.6v2.6v2.6v2.6h-2.6v-2.6h-2.6v-2.6h-2.6v-2.6h2.6
		v-2.6v-2.6h-2.6h-2.6v-2.6h-2.6h-2.6v-2.6v-2.6h-2.6h-2.6v-2.6h-2.6h-2.6v-2.6h-2.6v-2.6h-2.6h-2.6h-2.6v-2.6h-2.6v2.6v2.6h-2.6
		h-2.6v-2.6h-2.6v-2.6h-2.6h-2.6v2.6v2.6h-2.6v2.6h-2.6v-2.6h2.6v-2.6h-2.6h-2.6h-2.6v2.6v2.6v2.6v2.6h-2.6v-2.6h-2.6h-2.6v-2.6
		h-2.6v2.6v2.6H148h-2.6h-2.6v2.6h2.6v2.6h-2.6v2.6h-2.6v2.6h2.6v2.6h2.6v2.6h-2.6v2.6v2.6h-2.6h-2.6v-2.6v-2.6H135h-2.6v2.6h2.6
		v2.6v2.6h2.6v2.6H135v2.6h-2.6v-2.6h-2.6v2.6v2.6v2.6h2.6h2.6h2.6v2.6H135v2.6h-2.6v-2.6h-2.6v-2.6h-2.6h-2.6v2.6v2.6h2.6h2.6v2.6
		h2.6v2.6h2.6v-2.6h2.6v-2.6h2.6h2.6v-2.6h2.6v2.6v2.6v2.6h2.6v-2.6h2.6h2.6v2.6h2.6v-2.6v-2.6h-2.6v-2.6h-2.6H148v-2.6h2.6v-2.6
		h2.6v2.6h2.6v2.6h2.6v2.6v2.6h2.6v-2.6v-2.6v-2.6h-2.6v-2.6h2.6h2.6v2.6h2.6h2.6v-2.6h2.6h2.6v2.6h2.6v2.6h2.6v2.6v2.6h2.6v-2.6
		v-2.6h2.6h2.6v2.6h2.6v2.6h-2.6v-2.6h-2.6v2.6v2.6V73v2.6h2.6v2.6h2.6v2.6h-2.6v-2.6h-2.6h-2.6v2.6h-2.6v-2.6h-2.6v2.6v2.6h2.6h2.6
		V86h-2.6h-2.6h-2.6h-2.6v-2.6v-2.6h-2.6h-2.6v2.6h-2.6V86v2.6v2.6h-2.6v2.6v2.6h-2.6V99h-2.6v-2.6v-2.6v-2.6h2.6v-2.6h2.6V86h-2.6
		h-2.6v2.6h-2.6v2.6h-2.6H148v-2.6h-2.6h-2.6v2.6h-2.6v2.6h2.6v2.6h-2.6V99h-2.6H135v-2.6h-2.6V99v2.6v2.6h-2.6v-2.6h-2.6h-2.6v2.6
		h2.6v2.6h-2.6v2.6h2.6v2.6v2.6h2.6v2.6h2.6v-2.6V112h-2.6v-2.6h2.6v-2.6h2.6v2.6h-2.6v2.6h2.6v2.6h2.6V112h2.6v2.6v2.6h2.6h2.6
		v-2.6h2.6v2.6h2.6h2.6h2.6v-2.6h2.6h2.6h2.6v2.6h-2.6h-2.6v2.6h-2.6h-2.6v2.6h-2.6H148v2.6v2.6h2.6h2.6v2.6h2.6v-2.6h2.6v2.6h-2.6
		v2.6h2.6v2.6h-2.6v-2.6h-2.6v-2.6h-2.6v2.6H148v2.6v2.6h-2.6v2.6v2.6h2.6v2.6h2.6v-2.6h2.6v2.6v2.6h2.6v2.6h2.6v2.6h-2.6h-2.6v2.6
		v2.6h2.6v2.6v2.6h-2.6h-2.6v-2.6v-2.6v-2.6H148v-2.6h2.6v-2.6v-2.6H148v2.6h-2.6v-2.6h2.6v-2.6h-2.6v-2.6h-2.6v-2.6v-2.6h-2.6h-2.6
		v2.6h2.6v2.6v2.6h2.6v2.6v2.6v2.6h-2.6v2.6h-2.6v2.6H135h-2.6v2.6h2.6h2.6h2.6v2.6h2.6v2.6h2.6h2.6v2.6h2.6h2.6v-2.6h2.6h2.6v-2.6
		h2.6v-2.6h2.6v-2.6v-2.6h-2.6v-2.6h2.6v-2.6v-2.6v-2.6v-2.6h2.6v-2.6h-2.6v-2.6h2.6v2.6h2.6v-2.6h2.6v-2.6h-2.6v-2.6h2.6v-2.6h2.6
		v2.6h-2.6v2.6h2.6h2.6h2.6v-2.6h2.6v2.6h2.6v-2.6h2.6v-2.6h2.6v2.6h2.6h2.6v-2.6h2.6v2.6h2.6h2.6v2.6h2.6v2.6h2.6v2.6v2.6h2.6h2.6
		v2.6h-2.6v2.6h-2.6h-2.6v2.6h-2.6h-2.6v2.6h2.6v2.6h-2.6h-2.6v2.6h2.6h2.6h2.6v-2.6v-2.6h2.6h2.6v2.6v2.6h2.6v-2.6h2.6v2.6v2.6
		h-2.6v2.6h2.6v2.6h-2.6v-2.6h-2.6v-2.6h-2.6v2.6v2.6h-2.6v-2.6v-2.6h-2.6h-2.6h-2.6h-2.6v-2.6v-2.6h-2.6v2.6v2.6h-2.6v2.6h-2.6
		v-2.6h2.6v-2.6h-2.6h-2.6v-2.6v-2.6v-2.6v-2.6h-2.6h-2.6v-2.6v-2.6h-2.6v2.6v2.6h-2.6h-2.6v-2.6h-2.6h-2.6v2.6v2.6v2.6h2.6h2.6
		v-2.6h2.6v2.6v2.6h2.6v-2.6v-2.6h2.6h2.6v2.6v2.6h-2.6h-2.6v2.6v2.6h-2.6v-2.6v-2.6h-2.6h-2.6h-2.6v2.6v2.6h-2.6v2.6h-2.6v2.6h-2.6
		v2.6v2.6h-2.6v2.6h2.6h2.6h2.6h2.6v2.6h2.6v-2.6h2.6h2.6v-2.6h-2.6v-2.6v-2.6h2.6v-2.6h2.6v2.6h2.6v2.6v2.6v2.6v2.6h2.6v-2.6h2.6
		v-2.6h-2.6v-2.6h2.6v2.6h2.6h2.6v-2.6h2.6v2.6h-2.6v2.6h2.6v2.6h2.6v-2.6h2.6v-2.6h-2.6v-2.6h2.6v2.6h2.6v2.6h2.6v2.6h2.6h2.6v-2.6
		h2.6v-2.6v-2.6h2.6h2.6h2.6v-2.6v-2.6h2.6v-2.6h-2.6v-2.6h2.6v-2.6v-2.6h-2.6h-2.6v-2.6h2.6v-2.6h-2.6v-2.6v-2.6h2.6v-2.6h2.6v-2.6
		v-2.6h2.6v2.6v2.6v2.6v2.6h-2.6v2.6h2.6h2.6v-2.6v-2.6v-2.6v-2.6v-2.6v-2.6h-2.6v-2.6v-2.6V125h-2.6v-2.6h2.6v-2.6h2.6v-2.6v-2.6
		h-2.6v2.6h-2.6v-2.6h2.6V112h2.6v-2.6v-2.6v-2.6h2.6h2.6v-2.6V99v-2.6v-2.6v-2.6v-2.6V86v-2.6h-2.6V86v2.6v2.6v2.6v2.6V99h-2.6
		v-2.6h-2.6v-2.6h-2.6v2.6V99h2.6v2.6h-2.6v2.6h-2.6v-2.6V99h-2.6h-2.6v-2.6h2.6v-2.6h-2.6h-2.6h-2.6h-2.6h-2.6v-2.6v-2.6h-2.6v2.6
		h-2.6v-2.6h2.6V86h-2.6v-2.6v-2.6h2.6v-2.6h-2.6v-2.6h-2.6V73h2.6v2.6h2.6V73v-2.6v-2.6h2.6v2.6h2.6v-2.6h2.6h2.6h2.6h2.6h2.6h2.6
		h2.6v2.6h-2.6h-2.6V73h2.6h2.6v2.6v2.6h2.6v2.6h2.6h2.6v-2.6v-2.6V73h-2.6v-2.6h-2.6v-2.6v-2.6v-2.6h2.6v-2.6h-2.6v-2.6v-2.6h2.6
		v2.6v2.6h2.6v-2.6v-2.6v-2.6H228.4z M145.4,163.9v-2.6v-2.6h-2.6v-2.6h2.6v2.6h2.6v2.6v2.6H145.4z M163.5,169.1h2.6v2.6h-2.6V169.1
		z M179.1,158.7h2.6v2.6h-2.6V158.7z M181.7,163.9h2.6v2.6h-2.6V163.9z M145.4,57.5h-2.6v-2.6h2.6V57.5z M150.6,49.7h2.6v2.6h-2.6
		V49.7z M148,34.1h2.6v2.6H148V34.1z M153.1,28.9h2.6v2.6h-2.6V28.9z M163.5,28.9h2.6v2.6h-2.6V28.9z M163.5,47.1h2.6v2.6h-2.6V47.1
		z M197.3,39.3h-2.6v-2.6h2.6V39.3z M181.7,31.5h-2.6v-2.6h2.6V31.5z M210.3,47.1h-2.6v-2.6h2.6V47.1z M194.7,57.5h2.6v2.6h-2.6
		V57.5z M205.1,39.3h-2.6v-2.6h2.6V39.3z M171.3,28.9v2.6h-2.6v-2.6v-2.6h2.6V28.9z M158.3,44.5h2.6v2.6h-2.6V44.5z M212.9,39.3
		h-2.6v-2.6h2.6V39.3z M207.7,34.1h-2.6v-2.6h2.6V34.1z M150.6,41.9v2.6h2.6h2.6v2.6h-2.6h-2.6v-2.6H148v-2.6H150.6z M189.5,88.6
		h-2.6v2.6h2.6v2.6h-2.6v2.6h-2.6h-2.6v-2.6h2.6h2.6v-2.6h-2.6v-2.6h2.6V86h2.6V88.6z M215.5,137.9h-2.6v-2.6h2.6V137.9z
		 M212.9,130.2v2.6h-2.6v-2.6v-2.6h2.6V130.2z M215.5,117.2h-2.6v-2.6h2.6V117.2z M179.1,106.8h-2.6v-2.6h2.6V106.8z M148,104.2h2.6
		v2.6H148V104.2z M155.7,106.8h2.6v2.6h-2.6V106.8z M202.5,104.2h-2.6v-2.6h2.6V104.2z M192.1,101.6h-2.6V99h2.6V101.6z M173.9,91.2
		h-2.6v-2.6h2.6V91.2z M155.7,104.2h-2.6v-2.6h2.6V104.2z M142.8,104.2h-2.6v-2.6h2.6V104.2z M137.6,106.8h2.6v2.6h-2.6V106.8z
		 M145.4,112h-2.6v-2.6v-2.6h2.6v2.6h2.6v2.6H145.4z M166.1,119.8v2.6h-2.6v2.6h-2.6v-2.6h2.6v-2.6H166.1z M155.7,122.4h2.6v2.6
		h-2.6V122.4z M160.9,140.5v2.6v2.6h-2.6v-2.6h-2.6v-2.6h2.6v-2.6h2.6V140.5z M166.1,135.4h-2.6v-2.6h2.6V135.4z M192.1,127.6V125
		v-2.6h-2.6v2.6v2.6h-2.6V125h-2.6v-2.6h-2.6h-2.6v2.6h-2.6v-2.6v-2.6v-2.6h-2.6v-2.6h2.6V112h2.6v2.6h2.6V112h2.6h2.6v-2.6v-2.6
		h-2.6v2.6h-2.6v-2.6v-2.6h2.6h2.6v2.6h2.6v2.6h2.6v-2.6h2.6v2.6h-2.6v2.6h2.6h2.6h2.6h2.6h2.6v-2.6h2.6v2.6h2.6v2.6h-2.6v2.6v2.6
		v2.6h-2.6v2.6h-2.6v-2.6h-2.6v2.6h-2.6v-2.6h-2.6v2.6v2.6H192.1z M220.7,132.8h-2.6v-2.6h-2.6v-2.6h2.6v2.6h2.6V132.8z
		 M218.1,109.4h2.6v2.6h-2.6V109.4z M194.7,91.2v2.6h2.6v2.6V99h-2.6v-2.6v-2.6h-2.6v-2.6v-2.6h2.6V91.2z M194.7,83.4h-2.6v-2.6h2.6
		V83.4z M197.3,70.4h-2.6v-2.6h2.6V70.4z"/>
	<polygon class="st0" points="111.6,52.3 114.2,52.3 114.2,49.7 111.6,49.7 111.6,47.1 109,47.1 109,49.7 106.4,49.7 106.4,52.3 
		109,52.3 	"/>
	<polygon class="st0" points="114.2,44.5 114.2,47.1 116.8,47.1 116.8,49.7 116.8,52.3 119.4,52.3 122,52.3 122,49.7 119.4,49.7 
		119.4,47.1 119.4,44.5 122,44.5 122,41.9 119.4,41.9 116.8,41.9 116.8,44.5 	"/>
	<polygon class="st0" points="103.8,44.5 103.8,41.9 101.2,41.9 101.2,39.3 98.6,39.3 98.6,41.9 98.6,44.5 101.2,44.5 101.2,47.1 
		103.8,47.1 	"/>
	<polygon class="st0" points="111.6,44.5 111.6,41.9 114.2,41.9 116.8,41.9 116.8,39.3 114.2,39.3 114.2,36.7 111.6,36.7 
		111.6,39.3 109,39.3 109,41.9 106.4,41.9 106.4,44.5 106.4,47.1 109,47.1 109,44.5 	"/>
	<polygon class="st0" points="142.8,41.9 142.8,39.3 140.2,39.3 137.6,39.3 137.6,41.9 140.2,41.9 	"/>
	<polygon class="st0" points="124.6,41.9 127.2,41.9 127.2,39.3 127.2,36.7 124.6,36.7 124.6,39.3 	"/>
	<rect x="119.4" y="36.7" class="st0" width="2.6" height="2.6"/>
	<path class="st0" d="M114.2,36.7h2.6v-2.6h2.6v-2.6h2.6v2.6v2.6h2.6v-2.6v-2.6h2.6v-2.6v-2.6h2.6v-2.6h-2.6v-2.6h2.6h2.6v-2.6h-2.6
		h-2.6h-2.6H122v-2.6h-2.6h-2.6v2.6h2.6v2.6h-2.6v2.6v2.6h2.6v2.6h-2.6v2.6h-2.6v-2.6h-2.6v2.6v2.6h2.6V36.7z M122,26.3h2.6v2.6H122
		V26.3z"/>
	<rect x="109" y="34.1" class="st0" width="2.6" height="2.6"/>
	<rect x="137.6" y="31.5" class="st0" width="2.6" height="2.6"/>
	<rect x="106.4" y="31.5" class="st0" width="2.6" height="2.6"/>
	<rect x="140.2" y="28.9" class="st0" width="2.6" height="2.6"/>
	<rect x="135" y="28.9" class="st0" width="2.6" height="2.6"/>
	<rect x="129.8" y="28.9" class="st0" width="2.6" height="2.6"/>
	<polygon class="st0" points="218.1,26.3 218.1,23.7 215.5,23.7 215.5,26.3 215.5,28.9 218.1,28.9 	"/>
	<rect x="114.2" y="26.3" class="st0" width="2.6" height="2.6"/>
	<rect x="111.6" y="23.7" class="st0" width="2.6" height="2.6"/>
	<polygon class="st0" points="142.8,23.7 145.4,23.7 145.4,21.1 148,21.1 148,18.5 145.4,18.5 142.8,18.5 140.2,18.5 140.2,21.1 
		142.8,21.1 	"/>
	<polygon class="st0" points="135,21.1 135,23.7 137.6,23.7 137.6,26.3 140.2,26.3 140.2,23.7 140.2,21.1 137.6,21.1 	"/>
	<rect x="155.7" y="18.5" class="st0" width="2.6" height="2.6"/>
	<polygon class="st0" points="210.3,18.5 210.3,15.9 207.7,15.9 205.1,15.9 205.1,18.5 207.7,18.5 	"/>
	<rect x="132.4" y="15.9" class="st0" width="2.6" height="2.6"/>
	<polygon class="st0" points="145.4,13.3 142.8,13.3 142.8,15.9 145.4,15.9 148,15.9 150.5,15.9 150.5,13.3 148,13.3 	"/>
	<rect x="135" y="13.3" class="st0" width="2.6" height="2.6"/>
	<polygon class="st0" points="199.9,10.7 199.9,8.1 197.3,8.1 197.3,10.7 197.3,13.3 199.9,13.3 	"/>
	<polygon class="st0" points="142.8,10.7 145.4,10.7 148,10.7 150.6,10.7 150.6,13.3 153.1,13.3 155.7,13.3 155.7,15.9 158.3,15.9 
		158.3,13.3 160.9,13.3 160.9,10.7 158.3,10.7 155.7,10.7 155.7,8.1 155.7,5.5 158.3,5.5 158.3,2.9 155.7,2.9 153.1,2.9 150.6,2.9 
		150.6,5.5 148,5.5 148,8.1 145.4,8.1 142.8,8.1 142.8,5.5 145.4,5.5 145.4,2.9 142.8,2.9 140.2,2.9 140.2,5.5 140.2,8.1 
		140.2,10.7 140.2,13.3 142.8,13.3 	"/>
	<polygon class="st0" points="132.4,10.7 129.8,10.7 127.2,10.7 127.2,13.3 129.8,13.3 132.4,13.3 135,13.3 135,10.7 	"/>
	<polygon class="st0" points="184.3,8.1 186.9,8.1 186.9,5.5 184.3,5.5 181.7,5.5 181.7,8.1 	"/>
	<polygon class="st0" points="163.5,8.1 166.1,8.1 166.1,5.5 168.7,5.5 168.7,8.1 168.7,10.7 171.3,10.7 171.3,8.1 171.3,5.5 
		171.3,2.9 168.7,2.9 166.1,2.9 163.5,2.9 160.9,2.9 160.9,5.5 163.5,5.5 	"/>
	<rect x="179.1" y="2.9" class="st0" width="2.6" height="2.6"/>
	<rect x="173.9" y="2.9" class="st0" width="2.6" height="2.6"/>
	<polygon class="st0" points="207.7,176.9 207.7,182.1 202.5,182.1 202.5,187.3 197.3,187.3 194.7,187.3 192.1,187.3 192.1,189.9 
		192.1,192.5 192.1,195.1 194.7,195.1 197.3,195.1 199.9,195.1 199.9,205.5 205.1,205.5 205.1,192.5 205.1,188.6 205.1,187.3 
		210.3,187.3 210.3,183.4 210.3,182.1 210.3,176.9 	"/>
	<polygon class="st0" points="80.4,200.3 77.8,200.3 77.8,197.7 77.8,195.1 80.4,195.1 80.4,192.5 77.8,192.5 75.3,192.5 
		72.7,192.5 70.1,192.5 70.1,195.1 67.5,195.1 67.5,197.7 70.1,197.7 70.1,200.3 67.5,200.3 67.5,197.7 64.9,197.7 62.3,197.7 
		59.7,197.7 59.7,195.1 57.1,195.1 57.1,197.7 57.1,200.3 57.1,202.9 57.1,205.5 59.7,205.5 59.7,202.9 62.3,202.9 62.3,200.3 
		64.9,200.3 64.9,202.9 64.9,205.5 67.5,205.5 70.1,205.5 72.7,205.5 75.3,205.5 77.8,205.5 80.4,205.5 83,205.5 83,202.9 83,200.3 
			"/>
	<polygon class="st0" points="154.4,92.5 154.4,99.3 160.4,99.3 166.8,99.3 166.8,87.3 157,87.3 157,90.7 154.4,90.7 	"/>
	<rect x="210.3" y="93.8" class="st0" width="13" height="10.8"/>
	<rect x="168.4" y="53.6" class="st0" width="9.8" height="9.1"/>
</g>
</svg>
