<?xml version="1.0" standalone="no"?>
<!DOCTYPE svg PUBLIC "-//W3C//DTD SVG 20010904//EN"
 "http://www.w3.org/TR/2001/REC-SVG-20010904/DTD/svg10.dtd">
<svg version="1.0" xmlns="http://www.w3.org/2000/svg"
 width="932.000000pt" height="932.000000pt" viewBox="0 0 932.000000 932.000000"
 preserveAspectRatio="xMidYMid meet">
<metadata>
Created by potrace 1.11, written by Peter Selinger 2001-2013
</metadata>
<g transform="translate(0.000000,932.000000) scale(0.100000,-0.100000)"
fill="#000000" stroke="none">
<path d="M5385 8908 l0 -153 -350 -2 c-193 -1 -356 -3 -363 -3 -10 0 -13 -27
-11 -121 1 -66 -1 -123 -5 -126 -3 -3 -1 -14 5 -24 6 -13 6 -19 0 -19 -6 0 -8
-6 -6 -13 4 -9 -19 -12 -97 -12 l-103 0 -2 -60 c0 -33 -2 -85 -2 -115 l-1 -56
-1275 1 c-843 0 -1275 -3 -1275 -10 0 -7 -3 -7 -8 0 -10 14 -944 14 -954 0 -5
-6 -8 -6 -8 0 0 7 -161 10 -463 10 l-462 0 -3 -3970 -2 -3971 3971 0 3971 0
-5 23 c-2 13 0 26 4 29 5 3 5 13 0 23 -5 9 -6 23 -1 30 4 8 4 26 0 41 -4 15
-4 33 0 40 4 7 4 25 0 40 -4 15 -4 33 0 40 4 7 4 25 0 40 -4 15 -5 32 -1 39 4
6 4 34 1 61 -4 33 -3 50 4 51 6 1 92 2 190 3 169 1 179 2 186 21 4 11 4 27 -1
36 -4 8 -4 21 1 29 5 8 5 21 -1 31 -6 11 -5 20 1 24 6 4 7 13 1 23 -6 11 -6
24 0 34 6 11 6 19 -1 23 -6 4 -7 11 -3 18 8 13 7 113 -2 126 -3 6 -1 12 5 16
7 4 7 12 0 25 -7 13 -7 21 0 25 6 4 7 13 1 24 -6 10 -6 23 -1 31 5 8 5 21 -1
31 -6 11 -5 20 1 24 6 4 7 12 1 23 -5 9 -5 26 0 39 5 15 5 23 -2 23 -6 0 -7 5
-3 12 4 6 6 28 6 50 -2 43 -12 40 135 40 l72 -1 0 217 c0 119 0 237 1 262 l0
45 50 -3 50 -4 1 34 c0 18 1 66 1 106 l0 72 105 0 105 0 -4 25 c-3 14 -2 28 2
30 4 3 5 19 1 35 -3 17 -4 51 -2 76 3 39 6 45 25 43 11 0 35 -1 51 0 l30 1 0
330 -1 330 46 1 c25 1 63 1 85 0 22 0 49 1 60 4 20 4 20 12 19 917 l-1 913 81
5 81 5 0 1095 0 1095 -65 2 c-36 1 -73 2 -82 2 -15 1 -17 21 -17 204 0 111 0
225 0 252 l-1 50 -100 -2 c-55 0 -101 2 -101 5 -1 4 -3 27 -4 52 -2 25 -3 48
-4 52 -1 4 -24 8 -52 10 l-50 3 1 185 c1 200 0 283 -4 287 -1 1 -71 3 -154 4
l-152 0 -1 37 c0 20 0 71 0 114 0 51 -4 77 -12 80 -7 3 -53 4 -104 3 -50 0
-90 1 -88 3 2 2 0 15 -5 28 -6 14 -6 26 0 29 7 4 7 13 0 24 -5 10 -7 21 -4 23
3 3 -9 8 -26 10 -16 3 -30 1 -30 -4 0 -5 -9 -4 -20 2 -11 6 -20 7 -20 3 0 -4
-27 -6 -60 -5 l-60 4 0 154 0 154 -32 1 c-18 0 -132 1 -253 2 l-220 2 -2 85
c0 47 -1 93 -2 103 -1 16 -61 17 -1104 17 l-1102 0 0 -152z"/>
</g>
</svg>
