<?xml version="1.0" encoding="utf-8"?>
<!-- Generator: Adobe Illustrator 23.0.1, SVG Export Plug-In . SVG Version: 6.00 Build 0)  -->
<svg version="1.1" id="Layer_1" xmlns="http://www.w3.org/2000/svg" xmlns:xlink="http://www.w3.org/1999/xlink" x="0px" y="0px"
	 viewBox="0 0 40 48" style="enable-background:new 0 0 40 48;" xml:space="preserve">
<style type="text/css">
	.st0{clip-path:url(#SVGID_2_);fill-rule:evenodd;clip-rule:evenodd;fill:#951B20;}
</style>
<g>
	<defs>
		<rect id="SVGID_1_" x="0.1" y="0" width="39.3" height="48.1"/>
	</defs>
	<clipPath id="SVGID_2_">
		<use xlink:href="#SVGID_1_"  style="overflow:visible;"/>
	</clipPath>
	<path class="st0" d="M16,6.2V13c-1.5,0-2.6-0.1-3.7,0.4c-2.8,1.2-3.3,5.9-1.5,8.2c1.1,1.4,2.7,1.7,5.1,1.5V30
		C8.3,30.8,4.3,26.2,3.6,19.8c-0.7-6.6,2.7-13.2,9-13.6C13.7,6.1,14.7,6.3,16,6.2"/>
	<path class="st0" d="M17.9,6.2c4.8,0.3,9.8-1,12.4,1.4c3.6,3.3,3.2,12.3-0.8,14.8c-1.4,0.9-3.6,0.8-5.9,0.8c-0.1,2.2,0,4.6-0.1,6.9
		h-5.7V6.4C17.9,6.3,17.9,6.2,17.9,6.2 M23.4,17.6c1.3,0,2.1,0.1,2.9-0.4c1-0.8,1.2-3.2,0.5-4.4c-0.7-1.1-1.9-1-3.3-1
		C23.3,13.6,23.4,15.7,23.4,17.6"/>
	<path class="st0" d="M38.7,15.8C36.8,10.5,35.2,5.2,33.4,0h-2.2c-0.1,0,0,0.1,0,0.2c2,6,4.1,11.9,6.1,17.9
		c-2.6,5.2-5,10.5-7.6,15.6H3c-1,4.8-2,9.5-2.9,14.4h31.5c2.5-9.3,4.9-18.8,7.4-28.2c0.2-0.7,0.5-1.4,0.5-1.9
		C39.5,17.4,39,16.5,38.7,15.8 M30,36l0.2,2.8h-0.8l0-0.6h-0.7l-0.2,0.6h-0.8L29,36H30z M27.3,36c0.4,0,0.7,0.2,0.6,0.7
		c-0.1,0.4-0.3,0.6-0.6,0.7l0,0c0.3,0.1,0.4,0.4,0.3,0.6c-0.1,0.7-0.6,0.8-1,0.8h-1.2L26,36H27.3z M24,36l-0.4,2h0l0.8-2h1.2
		L25,38.8h-0.7l0.4-2h0l-0.8,2h-1.2l0.6-2.8H24z M20.6,37.5l0.3-1.5h2l-0.6,2.8h-0.8l0.4-2h-0.4l-0.2,1c-0.1,0.6-0.4,1-1,1l0-0.9
		C20.5,37.9,20.6,37.8,20.6,37.5 M17.6,37.9c0.1-0.1,0.2-0.2,0.3-0.4l0.3-1.6h2l-0.4,2h0.1l-0.3,1.3h-0.8l0.1-0.5h-0.8l-0.1,0.5
		h-0.8L17.6,37.9L17.6,37.9z M17.4,36l-0.1,0.7h-1l-0.1,0.4h1L17,37.7h-1L16,38.1H17l-0.1,0.7H15l0.6-2.8H17.4z M12.1,36l0.2,2.8
		h-0.8l0-0.6h-0.7l-0.2,0.6H9.8l1.3-2.8H12.1z M9.5,36c0.3,0,0.7,0.2,0.6,1c-0.1,0.7-0.6,1-1,1H8.5l-0.2,0.8H7.5L8.1,36H9.5z
		 M5.6,36h2.2l-0.6,2.8H6.4l0.4-2H6.2l-0.4,2H5L5.6,36z M2.9,37.3c0.2-0.9,0.9-1.4,1.5-1.4c0.2,0,0.3,0,0.6,0.1l-0.1,0.7
		c-0.1-0.1-0.2-0.1-0.4-0.1c-0.3,0-0.7,0.2-0.7,0.7c-0.1,0.5,0.1,0.7,0.4,0.7c0.2,0,0.3,0,0.5-0.1l-0.1,0.7
		c-0.2,0.1-0.4,0.1-0.6,0.1C3.2,38.8,2.7,38.3,2.9,37.3 M7.2,43.2C6.9,44.5,6,45,5.1,45H3.8l-0.3,1.5H1.7l1-5.1h3.1
		C6.5,41.4,7.4,41.8,7.2,43.2 M12.5,44c-0.4,1.7-1.5,2.6-3.1,2.6S7,45.7,7.3,44c0.3-1.7,1.5-2.6,3.1-2.6C12,41.3,12.8,42.3,12.5,44
		 M13.1,36h1.3c0.4,0,0.7,0.2,0.6,0.7c-0.1,0.4-0.3,0.6-0.6,0.7v0c0.3,0.1,0.4,0.4,0.3,0.6c-0.1,0.7-0.6,0.8-1,0.8h-1.2L13.1,36z
		 M16.3,46.4c-0.4,0.1-0.9,0.2-1.3,0.2c-1.5,0-2.6-0.9-2.2-2.7c0.3-1.7,1.8-2.5,3.3-2.5c0.5,0,0.8,0.1,1.2,0.2L17,42.8
		c-0.3-0.1-0.6-0.2-0.9-0.2c-0.8,0-1.4,0.4-1.6,1.3c-0.2,0.9,0.3,1.3,1,1.3c0.3,0,0.6-0.1,1-0.2L16.3,46.4z M20.6,46.4
		c-0.4,0.1-0.9,0.2-1.3,0.2c-1.5,0-2.6-0.9-2.2-2.7c0.3-1.7,1.8-2.5,3.3-2.5c0.5,0,0.8,0.1,1.2,0.2l-0.3,1.3
		c-0.3-0.1-0.5-0.2-0.8-0.2c-0.8,0-1.4,0.4-1.6,1.3c-0.2,0.9,0.3,1.3,1,1.3c0.3,0,0.7-0.1,1-0.2L20.6,46.4z M24.5,46.5l0.8-3.7h0
		l-1.6,3.7H21l1-5.1h1.5L22.8,45h0l1.6-3.6h2.7l-1,5.1H24.5z M31.1,46.5h-1.8l0.4-1.7h-0.4c-0.2,0-0.4,0-0.6,0.3
		c-0.2,0.3-0.4,1.1-0.5,1.5h-1.8c0.3-0.5,0.4-1.3,0.8-1.8c0.2-0.3,0.5-0.5,0.9-0.5l0,0c-0.6-0.2-1-0.6-0.8-1.3c0.2-1,1-1.3,2.1-1.3
		h2.9L31.1,46.5z M32.6,38.8h-0.8l0.2-0.9h-0.2c-0.1,0-0.2,0-0.3,0.1c-0.1,0.2-0.2,0.6-0.3,0.8h-0.8c0.1-0.3,0.2-0.7,0.4-1
		c0.1-0.1,0.2-0.3,0.4-0.3l0,0c-0.3-0.1-0.4-0.3-0.4-0.7c0.1-0.5,0.5-0.7,1-0.7h1.3L32.6,38.8z"/>
	<path class="st0" d="M14.2,36.8c0-0.2-0.1-0.3-0.2-0.3h-0.2l-0.1,0.5h0.2C14,37.1,14.2,37,14.2,36.8"/>
	<path class="st0" d="M9.3,37c0.1-0.3-0.1-0.3-0.3-0.3H8.7l-0.1,0.7h0.2C9,37.3,9.2,37.3,9.3,37"/>
	<polygon class="st0" points="11.5,36.6 11.5,36.6 11.1,37.5 11.5,37.5 	"/>
	<path class="st0" d="M19.2,36.7h-0.4l-0.2,1c0,0.2-0.1,0.2-0.2,0.3H19L19.2,36.7z"/>
	<path class="st0" d="M10.2,42.6c-0.7,0-0.9,0.9-1,1.4c-0.1,0.5-0.2,1.4,0.4,1.4c0.7,0,0.9-0.9,1-1.4C10.7,43.5,10.8,42.6,10.2,42.6
		"/>
	<path class="st0" d="M4.6,42.6H4.3L4,43.9h0.4c0.4,0,0.9-0.1,1-0.7C5.5,42.7,5.1,42.6,4.6,42.6"/>
	<path class="st0" d="M14,37.9c0-0.2-0.1-0.3-0.2-0.3h-0.2l-0.1,0.6h0.2C13.8,38.2,14,38.1,14,37.9"/>
	<path class="st0" d="M31.7,36.9c-0.1,0.3,0.1,0.3,0.3,0.3h0.2l0.1-0.6H32C31.9,36.6,31.7,36.6,31.7,36.9"/>
	<polygon class="st0" points="29.4,36.6 29.4,36.6 29,37.5 29.4,37.5 	"/>
	<path class="st0" d="M26.9,37.9c0-0.2-0.1-0.3-0.2-0.3h-0.2l-0.1,0.6h0.2C26.7,38.2,26.9,38.1,26.9,37.9"/>
	<path class="st0" d="M29,43.1c-0.1,0.5,0.2,0.6,0.6,0.6H30l0.2-1.1h-0.5C29.4,42.6,29,42.6,29,43.1"/>
	<path class="st0" d="M27.1,36.8c0-0.2-0.1-0.3-0.2-0.3h-0.2l-0.1,0.5h0.2C26.9,37.1,27.1,37,27.1,36.8"/>
</g>
</svg>
